<?xml version="1.0" encoding="utf-8"?>
<!-- Generator: Adobe Illustrator 25.4.1, SVG Export Plug-In . SVG Version: 6.00 Build 0)  -->
<svg version="1.1" xmlns="http://www.w3.org/2000/svg" xmlns:xlink="http://www.w3.org/1999/xlink" x="0px" y="0px"
	 viewBox="0 0 750 500" style="enable-background:new 0 0 750 500;" xml:space="preserve">
<style type="text/css">
	.st0{fill:url(#SVGID_1_);}
	.st1{clip-path:url(#SVGID_00000074435564680708847120000002940508277896887973_);}
	.st2{fill:url(#SVGID_00000033351727487064821140000017556184668785973889_);}
	.st3{fill:url(#SVGID_00000072243142947195256850000016990724762522443438_);}
	.st4{opacity:0.6;fill:url(#SVGID_00000111910866924895426690000003297158886910316679_);}
	.st5{fill:url(#SVGID_00000002349736081932206000000004148857938550644391_);}
	.st6{fill:url(#SVGID_00000086667462556293540810000000924149597649775009_);}
	.st7{opacity:0.2;fill:url(#SVGID_00000037692436148107314500000000631063479295379117_);}
	.st8{fill:url(#SVGID_00000137852403274753428940000012064643104589645750_);}
	.st9{opacity:0.6;fill:url(#SVGID_00000051364283992864428930000002636803320928854702_);}
	.st10{fill:none;stroke:#FFFFFF;stroke-width:3;stroke-miterlimit:10;}
	.st11{fill:url(#SVGID_00000059287423711781587070000012134804399113402502_);}
	.st12{fill:url(#SVGID_00000160173264902743930220000011452533424065273781_);}
	.st13{fill:url(#SVGID_00000013876052498788734290000008271359920020358571_);}
	.st14{opacity:0.6;fill:url(#SVGID_00000078015021193205159640000015086072995128383383_);}
	.st15{fill:url(#SVGID_00000178173983361193205530000009798462903924177804_);}
	.st16{fill:url(#SVGID_00000177481805337110787950000006233234105746665886_);}
	.st17{fill:url(#SVGID_00000145778426655688014510000011343578813830444932_);}
	.st18{opacity:0.6;fill:url(#SVGID_00000082330542971236027460000015852656149607248554_);}
	.st19{fill:url(#SVGID_00000027603578285117778220000005823275596001792440_);}
	.st20{fill:url(#SVGID_00000020390279892978864300000003575616831896922548_);}
	.st21{fill:url(#SVGID_00000065033080924965007170000009736396075305394622_);}
	.st22{opacity:0.6;fill:url(#SVGID_00000148663297312616494770000005491064994240842885_);}
	.st23{fill:url(#SVGID_00000009571782540490672690000007074728534092268186_);}
	.st24{fill:url(#SVGID_00000115477152497634247950000003847183485642286976_);}
	.st25{fill:url(#SVGID_00000170253098055596777610000005017299367846669497_);}
	.st26{fill:url(#SVGID_00000134244683782765627650000014899385474900225976_);}
	.st27{opacity:0.6;fill:url(#SVGID_00000047738683613060435230000012829829978978080399_);}
	.st28{fill:url(#SVGID_00000144308710652408692170000003920472958785616311_);}
	.st29{fill:url(#SVGID_00000134942792425767202710000009887058210233054896_);}
	.st30{fill:url(#SVGID_00000178889639113983564630000002089352943915937682_);}
	.st31{fill:url(#SVGID_00000068670483406818723200000011352150212762274976_);}
	.st32{fill:url(#SVGID_00000080914071342901620970000007440101324440605851_);}
	.st33{fill:url(#SVGID_00000101794763352645080380000006653784344644457348_);}
	.st34{fill:url(#SVGID_00000158010757802086424230000015144580576835666334_);}
	.st35{fill:url(#SVGID_00000036933318304062686440000005497021338390942090_);}
	.st36{fill:url(#SVGID_00000096764469613058357230000006924407142657643700_);}
	.st37{fill:url(#SVGID_00000155132145549571844170000016217367993964250809_);}
	.st38{fill:url(#SVGID_00000163043073589756578120000013680459201175362699_);}
	.st39{fill:url(#SVGID_00000070804354181820282480000013435684110880123271_);}
	.st40{fill:url(#SVGID_00000039093939367458419230000013234330556161313954_);}
	.st41{fill:url(#SVGID_00000060720730936263167290000014529112998997573540_);}
	.st42{fill:url(#SVGID_00000176747714263853976290000003559591352029034627_);}
	.st43{fill:url(#SVGID_00000008870877833623575570000000876880820535579790_);}
	.st44{fill:url(#SVGID_00000096060331873113150640000005675525289677804214_);}
	.st45{fill:url(#SVGID_00000040542569190669321860000006888580276739397801_);}
	.st46{fill:url(#SVGID_00000028320856792817286580000010653275672939272106_);}
	.st47{fill:url(#SVGID_00000157273828208456569800000015336544104198657464_);}
	.st48{fill:#FFFFFF;}
	.st49{fill:url(#SVGID_00000041995816250466847600000010746118880309276861_);}
	.st50{fill:url(#SVGID_00000114774262450573766930000011564226857964344505_);}
	.st51{fill:url(#SVGID_00000002346976119373903640000013456510295007743664_);}
	.st52{fill:url(#SVGID_00000000207427519251073680000011334327938218462137_);}
	.st53{fill:url(#SVGID_00000096768399185381975570000005431434590852773808_);}
	.st54{fill:url(#SVGID_00000101078752402599805930000005011053099229230496_);}
	.st55{fill:url(#SVGID_00000109713620783786319190000007534092501180273855_);}
	.st56{fill:url(#SVGID_00000073710590888792026270000006946050802497597348_);}
	.st57{fill:url(#SVGID_00000181786063263825482580000001153056555678004371_);}
	.st58{fill:url(#SVGID_00000031166316586400370500000006633931865247462797_);}
	.st59{fill:url(#SVGID_00000183231971006536724240000010337221978659665295_);}
	.st60{fill:url(#SVGID_00000173860010707152844850000005701147568376489622_);}
	.st61{fill:url(#SVGID_00000163033474470180144900000002711912438201869706_);}
	.st62{fill:url(#SVGID_00000089563729703195449880000016071174753189232059_);}
	.st63{fill:url(#SVGID_00000147217822818406405290000006938024472311257775_);}
	.st64{fill:url(#SVGID_00000181047223740142093770000015824650597785922213_);}
	.st65{opacity:0.2;fill:url(#SVGID_00000114792318503115275830000010786656134239868337_);}
</style>
<g id="BACKGROUND">
	<radialGradient id="SVGID_1_" cx="268.0283" cy="258.4445" r="318.689" gradientUnits="userSpaceOnUse">
		<stop  offset="0" style="stop-color:#FFFFFF"/>
		<stop  offset="0.3543" style="stop-color:#F5F9FC"/>
		<stop  offset="0.9635" style="stop-color:#D9E8F3"/>
		<stop  offset="1" style="stop-color:#D7E7F2"/>
	</radialGradient>
	<rect class="st0" width="750" height="500"/>
</g>
<g id="OBJECTS">
	<g>
		<defs>
			<rect id="SVGID_00000156574279293883724180000006726902900660530587_" width="750" height="500"/>
		</defs>
		<clipPath id="SVGID_00000022562109087385206170000003536821672554901181_">
			<use xlink:href="#SVGID_00000156574279293883724180000006726902900660530587_"  style="overflow:visible;"/>
		</clipPath>
		<g style="clip-path:url(#SVGID_00000022562109087385206170000003536821672554901181_);">
			
				<linearGradient id="SVGID_00000127753895943851045920000015515782846923791514_" gradientUnits="userSpaceOnUse" x1="399.3994" y1="102.0356" x2="605.6075" y2="102.0356" gradientTransform="matrix(0.7071 0.7071 -0.7071 0.7071 276.8071 -287.5557)">
				<stop  offset="1.298195e-07" style="stop-color:#E5A330"/>
				<stop  offset="1" style="stop-color:#DAB468"/>
			</linearGradient>
			<polygon style="fill:url(#SVGID_00000127753895943851045920000015515782846923791514_);" points="705.79,139.91 559.98,-5.9 
				414.17,139.91 559.98,285.72 			"/>
			
				<linearGradient id="SVGID_00000010305401761185963730000010257715177365057971_" gradientUnits="userSpaceOnUse" x1="496.8875" y1="341.9655" x2="496.8875" y2="224.8555">
				<stop  offset="0" style="stop-color:#195A59"/>
				<stop  offset="1" style="stop-color:#209794"/>
			</linearGradient>
			<polygon style="fill:url(#SVGID_00000010305401761185963730000010257715177365057971_);" points="559.98,285.72 496.89,222.63 
				433.8,285.72 496.89,348.81 			"/>
			
				<linearGradient id="SVGID_00000030474021747526701150000007155062494281144203_" gradientUnits="userSpaceOnUse" x1="495.706" y1="225.1334" x2="558.0297" y2="289.085">
				<stop  offset="0" style="stop-color:#FFFFFF"/>
				<stop  offset="1" style="stop-color:#000000"/>
			</linearGradient>
			<polygon style="opacity:0.6;fill:url(#SVGID_00000030474021747526701150000007155062494281144203_);" points="559.98,285.72 
				496.89,222.63 492.41,227.11 555.5,290.2 			"/>
			
				<linearGradient id="SVGID_00000067947564333324536260000008184240286916108170_" gradientUnits="userSpaceOnUse" x1="426.5175" y1="303.0061" x2="414.7227" y2="413.2622">
				<stop  offset="0" style="stop-color:#003C51"/>
				<stop  offset="1" style="stop-color:#011526"/>
			</linearGradient>
			<polygon style="fill:url(#SVGID_00000067947564333324536260000008184240286916108170_);" points="475.99,352.56 421.22,297.79 
				366.44,352.56 421.22,407.34 			"/>
			
				<linearGradient id="SVGID_00000165217742077739486310000008352771191133368488_" gradientUnits="userSpaceOnUse" x1="426.5175" y1="310.8484" x2="414.7227" y2="421.1045">
				<stop  offset="1.298195e-07" style="stop-color:#E5A330"/>
				<stop  offset="1" style="stop-color:#DAB468"/>
			</linearGradient>
			<polygon style="fill:url(#SVGID_00000165217742077739486310000008352771191133368488_);" points="475.99,360.41 421.22,305.63 
				366.44,360.41 421.22,415.18 			"/>
			
				<linearGradient id="SVGID_00000003823060916063321580000016334375326136919700_" gradientUnits="userSpaceOnUse" x1="391.9319" y1="360.4063" x2="420.6257" y2="360.4063">
				<stop  offset="0" style="stop-color:#FFFFFF"/>
				<stop  offset="1" style="stop-color:#000000"/>
			</linearGradient>
			<polygon style="opacity:0.2;fill:url(#SVGID_00000003823060916063321580000016334375326136919700_);" points="421.22,305.63 
				366.44,360.41 421.22,415.18 			"/>
			
				<linearGradient id="SVGID_00000008861655035759482090000005720992442600172203_" gradientUnits="userSpaceOnUse" x1="557.3693" y1="241.4364" x2="562.731" y2="32.7723">
				<stop  offset="0" style="stop-color:#195A59"/>
				<stop  offset="1" style="stop-color:#209794"/>
			</linearGradient>
			<polygon style="fill:url(#SVGID_00000008861655035759482090000005720992442600172203_);" points="671.56,139.91 559.98,28.33 
				448.39,139.91 559.98,251.5 			"/>
			
				<linearGradient id="SVGID_00000145780636504559217920000009531182959385347772_" gradientUnits="userSpaceOnUse" x1="548.2888" y1="246.9232" x2="425.2828" y2="123.9172">
				<stop  offset="0" style="stop-color:#FFFFFF"/>
				<stop  offset="1" style="stop-color:#000000"/>
			</linearGradient>
			<polygon style="opacity:0.6;fill:url(#SVGID_00000145780636504559217920000009531182959385347772_);" points="552.86,258.61 
				441.28,147.03 448.39,139.91 559.98,251.5 			"/>
			
				<rect x="496.46" y="76.4" transform="matrix(0.7071 0.7071 -0.7071 0.7071 262.9481 -354.9846)" class="st10" width="127.03" height="127.03"/>
			
				<linearGradient id="SVGID_00000093856305097475014190000018404271928528894080_" gradientUnits="userSpaceOnUse" x1="617.2983" y1="51.5615" x2="608.3618" y2="241.9062">
				<stop  offset="0" style="stop-color:#003C51"/>
				<stop  offset="1" style="stop-color:#002631"/>
			</linearGradient>
			<polygon style="fill:url(#SVGID_00000093856305097475014190000018404271928528894080_);" points="671.56,139.91 559.98,28.33 
				559.98,251.5 			"/>
			
				<linearGradient id="SVGID_00000039116046214532207960000007787997579153958023_" gradientUnits="userSpaceOnUse" x1="473.5365" y1="-67.104" x2="605.6075" y2="-67.104" gradientTransform="matrix(0.7071 0.7071 -0.7071 0.7071 276.8071 -287.5557)">
				<stop  offset="0" style="stop-color:#003C51"/>
				<stop  offset="1" style="stop-color:#15242A"/>
			</linearGradient>
			<polygon style="fill:url(#SVGID_00000039116046214532207960000007787997579153958023_);" points="799.18,46.53 705.79,-46.86 
				612.4,46.53 705.79,139.91 			"/>
			
				<linearGradient id="SVGID_00000015327533470631745870000000521366688544415891_" gradientUnits="userSpaceOnUse" x1="705.7877" y1="97.4456" x2="705.7877" y2="46.8972">
				<stop  offset="0" style="stop-color:#003C51"/>
				<stop  offset="1" style="stop-color:#15242A"/>
			</linearGradient>
			<polygon style="fill:url(#SVGID_00000015327533470631745870000000521366688544415891_);" points="799.18,46.53 612.4,46.53 
				705.79,139.91 			"/>
			
				<linearGradient id="SVGID_00000047020311612203507710000014212381043930387339_" gradientUnits="userSpaceOnUse" x1="473.5365" y1="-69.1509" x2="605.6075" y2="-69.1509" gradientTransform="matrix(0.7071 0.7071 -0.0445 0.0445 277.4232 -288.1718)">
				<stop  offset="0" style="stop-color:#FFFFFF"/>
				<stop  offset="1" style="stop-color:#000000"/>
			</linearGradient>
			<polygon style="opacity:0.6;fill:url(#SVGID_00000047020311612203507710000014212381043930387339_);" points="711.66,134.04 
				618.28,40.65 612.4,46.53 705.79,139.91 			"/>
			
				<linearGradient id="SVGID_00000000941861564041944170000004923905233110067903_" gradientUnits="userSpaceOnUse" x1="605.5988" y1="244.7169" x2="811.8069" y2="244.7169" gradientTransform="matrix(0.7071 0.7071 -0.7071 0.7071 276.8071 -287.5557)">
				<stop  offset="0" style="stop-color:#003C51"/>
				<stop  offset="1" style="stop-color:#011526"/>
			</linearGradient>
			<polygon style="fill:url(#SVGID_00000000941861564041944170000004923905233110067903_);" points="750.7,386.61 604.89,240.8 
				459.08,386.61 604.89,532.42 			"/>
			
				<linearGradient id="SVGID_00000002374407135067870660000016995527975783410816_" gradientUnits="userSpaceOnUse" x1="624.0925" y1="495.8887" x2="830.3007" y2="495.8887" gradientTransform="matrix(0.7071 0.7071 -0.7071 0.7071 276.8071 -287.5557)">
				<stop  offset="0" style="stop-color:#003C51"/>
				<stop  offset="1" style="stop-color:#011526"/>
			</linearGradient>
			<polygon style="fill:url(#SVGID_00000002374407135067870660000016995527975783410816_);" points="586.17,577.29 440.36,431.48 
				294.56,577.29 440.36,723.1 			"/>
			
				<rect x="357.35" y="494.27" transform="matrix(0.7071 0.7071 -0.7071 0.7071 537.1841 -142.3013)" class="st10" width="166.04" height="166.04"/>
			
				<linearGradient id="SVGID_00000078011558333638008600000000545224150011045250_" gradientUnits="userSpaceOnUse" x1="604.8916" y1="271.6123" x2="604.8916" y2="447.5227">
				<stop  offset="1.298195e-07" style="stop-color:#E5A330"/>
				<stop  offset="1" style="stop-color:#DAB468"/>
			</linearGradient>
			<polygon style="fill:url(#SVGID_00000078011558333638008600000000545224150011045250_);" points="750.7,412.69 604.89,266.88 
				459.08,412.69 604.89,558.5 			"/>
			
				<linearGradient id="SVGID_00000146468326653647096090000007800824036535069856_" gradientUnits="userSpaceOnUse" x1="604.8916" y1="517.7496" x2="604.8916" y2="403.768">
				<stop  offset="0" style="stop-color:#FFFFFF"/>
				<stop  offset="1" style="stop-color:#000000"/>
			</linearGradient>
			<polygon style="opacity:0.6;fill:url(#SVGID_00000146468326653647096090000007800824036535069856_);" points="710.8,418.69 
				604.89,312.78 498.98,418.69 604.89,524.61 			"/>
			
				<linearGradient id="SVGID_00000123412254554264572990000017390444946809019324_" gradientUnits="userSpaceOnUse" x1="604.8916" y1="414.1754" x2="604.8916" y2="308.4644">
				<stop  offset="0" style="stop-color:#00444F"/>
				<stop  offset="1" style="stop-color:#00B2AD"/>
			</linearGradient>
			<polygon style="fill:url(#SVGID_00000123412254554264572990000017390444946809019324_);" points="710.8,412.69 604.89,306.78 
				498.98,412.69 604.89,518.61 			"/>
			
				<rect x="546.06" y="353.86" transform="matrix(0.7071 0.7071 -0.7071 0.7071 468.9863 -306.8481)" class="st10" width="117.67" height="117.67"/>
			
				<linearGradient id="SVGID_00000014591996118345297240000017882103364476704640_" gradientUnits="userSpaceOnUse" x1="604.8916" y1="505.1618" x2="604.8916" y2="413.1905">
				<stop  offset="0" style="stop-color:#003C51"/>
				<stop  offset="1" style="stop-color:#15242A"/>
			</linearGradient>
			<polygon style="fill:url(#SVGID_00000014591996118345297240000017882103364476704640_);" points="710.8,412.69 498.98,412.69 
				604.89,518.61 			"/>
			
				<linearGradient id="SVGID_00000072983990660345824660000007471140738751239057_" gradientUnits="userSpaceOnUse" x1="605.5928" y1="58.077" x2="772.6525" y2="58.077" gradientTransform="matrix(0.7071 0.7071 -0.7071 0.7071 276.8071 -287.5557)">
				<stop  offset="0" style="stop-color:#00444F"/>
				<stop  offset="1" style="stop-color:#00B2AD"/>
			</linearGradient>
			<polygon style="fill:url(#SVGID_00000072983990660345824660000007471140738751239057_);" points="841.15,240.79 723.02,122.66 
				604.89,240.79 723.02,358.92 			"/>
			
				<linearGradient id="SVGID_00000018211616796001850250000002057980205122007479_" gradientUnits="userSpaceOnUse" x1="726.3983" y1="332.2463" x2="722.158" y2="231.2756">
				<stop  offset="0" style="stop-color:#FFFFFF"/>
				<stop  offset="1" style="stop-color:#000000"/>
			</linearGradient>
			<polygon style="opacity:0.6;fill:url(#SVGID_00000018211616796001850250000002057980205122007479_);" points="808.86,251.79 
				723.02,165.94 637.17,251.79 723.02,337.63 			"/>
			
				<linearGradient id="SVGID_00000060728069806598938120000017367612455992431257_" gradientUnits="userSpaceOnUse" x1="722.2444" y1="332.8547" x2="723.7828" y2="160.035">
				<stop  offset="0" style="stop-color:#FCAE00"/>
				<stop  offset="1" style="stop-color:#EA4E00"/>
			</linearGradient>
			<polygon style="fill:url(#SVGID_00000060728069806598938120000017367612455992431257_);" points="808.86,245.79 723.02,159.94 
				637.17,245.79 723.02,331.63 			"/>
			
				<linearGradient id="SVGID_00000116235695515540881600000000137927577498823827_" gradientUnits="userSpaceOnUse" x1="722.2444" y1="327.8547" x2="723.7828" y2="155.035">
				<stop  offset="0" style="stop-color:#195A59"/>
				<stop  offset="1" style="stop-color:#209794"/>
			</linearGradient>
			<polygon style="fill:url(#SVGID_00000116235695515540881600000000137927577498823827_);" points="808.86,240.79 723.02,154.94 
				637.17,240.79 723.02,326.63 			"/>
			
				<linearGradient id="SVGID_00000103951021785827106590000015858923432847812287_" gradientUnits="userSpaceOnUse" x1="757.285" y1="275.8709" x2="757.9044" y2="206.2898">
				<stop  offset="0" style="stop-color:#003C51"/>
				<stop  offset="1" style="stop-color:#011526"/>
			</linearGradient>
			<polygon style="fill:url(#SVGID_00000103951021785827106590000015858923432847812287_);" points="792.16,240.82 757.6,206.25 
				723.03,240.82 757.6,275.38 			"/>
			
				<linearGradient id="SVGID_00000119079281868217065900000016723549012208536706_" gradientUnits="userSpaceOnUse" x1="688.0466" y1="275.9832" x2="688.6659" y2="206.4022">
				<stop  offset="1.298195e-07" style="stop-color:#E5A330"/>
				<stop  offset="1" style="stop-color:#DAB468"/>
			</linearGradient>
			<polygon style="fill:url(#SVGID_00000119079281868217065900000016723549012208536706_);" points="722.92,240.93 688.36,206.37 
				653.8,240.93 688.36,275.49 			"/>
			
				<rect x="705.24" y="188.46" transform="matrix(0.7071 0.7071 -0.7071 0.7071 357.6149 -450.8521)" class="st10" width="35.6" height="35.6"/>
			
				<linearGradient id="SVGID_00000059305847427652045820000009140271046762282423_" gradientUnits="userSpaceOnUse" x1="466.3831" y1="386.9807" x2="719.3619" y2="128.4316" gradientTransform="matrix(0.967 -0.033 -0.033 0.967 28.2479 28.2479)">
				<stop  offset="0" style="stop-color:#FFFFFF"/>
				<stop  offset="1" style="stop-color:#000000"/>
			</linearGradient>
			<polygon style="opacity:0.6;fill:url(#SVGID_00000059305847427652045820000009140271046762282423_);" points="728.26,127.9 
				723.02,122.67 459.08,386.61 464.32,391.84 			"/>
			
				<linearGradient id="SVGID_00000167383767703671486630000010710015924179205765_" gradientUnits="userSpaceOnUse" x1="441.29" y1="250.5653" x2="441.5458" y2="221.8276" gradientTransform="matrix(0.7071 0.7071 -0.7071 0.7071 288.9876 -233.1571)">
				<stop  offset="0" style="stop-color:#003C51"/>
				<stop  offset="1" style="stop-color:#15242A"/>
			</linearGradient>
			<polygon style="fill:url(#SVGID_00000167383767703671486630000010710015924179205765_);" points="454.19,245.91 434.18,225.9 
				414.17,245.91 434.18,265.92 			"/>
			
				<linearGradient id="SVGID_00000030458153072738076990000008801303877482454963_" gradientUnits="userSpaceOnUse" x1="441.29" y1="222.2673" x2="441.5458" y2="193.5296" gradientTransform="matrix(0.7071 0.7071 -0.7071 0.7071 288.9876 -233.1571)">
				<stop  offset="0" style="stop-color:#195A59"/>
				<stop  offset="1" style="stop-color:#209794"/>
			</linearGradient>
			<polygon style="fill:url(#SVGID_00000030458153072738076990000008801303877482454963_);" points="474.2,225.9 454.19,205.89 
				434.18,225.9 454.19,245.91 			"/>
			
				<linearGradient id="SVGID_00000085963981612242349790000009660521466330439579_" gradientUnits="userSpaceOnUse" x1="412.992" y1="222.2672" x2="413.2478" y2="193.5295" gradientTransform="matrix(0.7071 0.7071 -0.7071 0.7071 288.9876 -233.1571)">
				<stop  offset="1.298195e-07" style="stop-color:#E5A330"/>
				<stop  offset="1" style="stop-color:#DAB468"/>
			</linearGradient>
			<polygon style="fill:url(#SVGID_00000085963981612242349790000009660521466330439579_);" points="454.19,205.89 434.18,185.88 
				414.17,205.89 434.18,225.9 			"/>
			
				<linearGradient id="SVGID_00000122000260706216342120000012742137213384949649_" gradientUnits="userSpaceOnUse" x1="448.3646" y1="611.9003" x2="448.6204" y2="583.1625" gradientTransform="matrix(-0.7071 0.7071 -0.7071 -0.7071 908.6351 586.3103)">
				<stop  offset="0" style="stop-color:#003C51"/>
				<stop  offset="1" style="stop-color:#011526"/>
			</linearGradient>
			<polygon style="fill:url(#SVGID_00000122000260706216342120000012742137213384949649_);" points="169.07,501.01 189.08,481 
				169.07,460.99 149.06,481 			"/>
			
				<linearGradient id="SVGID_00000101091169855723902360000015500295944418907291_" gradientUnits="userSpaceOnUse" x1="448.3645" y1="583.6022" x2="448.6203" y2="554.8644" gradientTransform="matrix(-0.7071 0.7071 -0.7071 -0.7071 908.6351 586.3103)">
				<stop  offset="0" style="stop-color:#00444F"/>
				<stop  offset="1" style="stop-color:#00B2AD"/>
			</linearGradient>
			<polygon style="fill:url(#SVGID_00000101091169855723902360000015500295944418907291_);" points="189.08,521.02 209.09,501.01 
				189.08,481 169.07,501.01 			"/>
			
				<linearGradient id="SVGID_00000154402406154732577510000001720635195569363362_" gradientUnits="userSpaceOnUse" x1="420.0665" y1="583.6022" x2="420.3224" y2="554.8644" gradientTransform="matrix(-0.7071 0.7071 -0.7071 -0.7071 908.6351 586.3103)">
				<stop  offset="1.298195e-07" style="stop-color:#E5A330"/>
				<stop  offset="1" style="stop-color:#DAB468"/>
			</linearGradient>
			<polygon style="fill:url(#SVGID_00000154402406154732577510000001720635195569363362_);" points="209.09,501.01 229.1,481 
				209.09,460.99 189.08,481 			"/>
			
				<linearGradient id="SVGID_00000071529709532391724850000007203453475556106663_" gradientUnits="userSpaceOnUse" x1="300.2174" y1="141.8911" x2="300.7951" y2="76.9949" gradientTransform="matrix(0.7071 0.7071 -0.7071 0.7071 288.9876 -233.1571)">
				<stop  offset="0" style="stop-color:#FCAE00"/>
				<stop  offset="1" style="stop-color:#EA4E00"/>
			</linearGradient>
			<polygon style="fill:url(#SVGID_00000071529709532391724850000007203453475556106663_);" points="469.45,56.55 424.26,11.36 
				379.08,56.55 424.26,101.73 			"/>
			
				<linearGradient id="SVGID_00000094615134961259607460000006576533364257658293_" gradientUnits="userSpaceOnUse" x1="300.2175" y1="77.988" x2="300.7951" y2="13.0918" gradientTransform="matrix(0.7071 0.7071 -0.7071 0.7071 288.9876 -233.1571)">
				<stop  offset="0" style="stop-color:#FCAE00"/>
				<stop  offset="1" style="stop-color:#EA4E00"/>
			</linearGradient>
			<polygon style="fill:url(#SVGID_00000094615134961259607460000006576533364257658293_);" points="514.64,11.36 469.45,-33.83 
				424.26,11.36 469.45,56.55 			"/>
			
				<linearGradient id="SVGID_00000112621395518216557550000009812105065725209258_" gradientUnits="userSpaceOnUse" x1="236.3144" y1="77.988" x2="236.892" y2="13.0918" gradientTransform="matrix(0.7071 0.7071 -0.7071 0.7071 288.9876 -233.1571)">
				<stop  offset="0" style="stop-color:#FCAE00"/>
				<stop  offset="1" style="stop-color:#EA4E00"/>
			</linearGradient>
			<polygon style="fill:url(#SVGID_00000112621395518216557550000009812105065725209258_);" points="469.45,-33.83 424.26,-79.01 
				379.08,-33.83 424.26,11.36 			"/>
			
				<linearGradient id="SVGID_00000168833390092093314550000011021558602135727807_" gradientUnits="userSpaceOnUse" x1="295.2677" y1="136.9413" x2="295.8453" y2="72.0451" gradientTransform="matrix(0.7071 0.7071 -0.7071 0.7071 288.9876 -233.1571)">
				<stop  offset="0" style="stop-color:#003C51"/>
				<stop  offset="1" style="stop-color:#011526"/>
			</linearGradient>
			<polygon style="fill:url(#SVGID_00000168833390092093314550000011021558602135727807_);" points="469.45,49.55 424.26,4.36 
				379.08,49.55 424.26,94.73 			"/>
			
				<linearGradient id="SVGID_00000011019377972099504300000010528431407735077303_" gradientUnits="userSpaceOnUse" x1="295.2677" y1="73.0382" x2="295.8453" y2="8.1421" gradientTransform="matrix(0.7071 0.7071 -0.7071 0.7071 288.9876 -233.1571)">
				<stop  offset="0" style="stop-color:#195A59"/>
				<stop  offset="1" style="stop-color:#209794"/>
			</linearGradient>
			<polygon style="fill:url(#SVGID_00000011019377972099504300000010528431407735077303_);" points="514.64,4.36 469.45,-40.83 
				424.26,4.36 469.45,49.55 			"/>
			
				<linearGradient id="SVGID_00000050665276836094172940000002495966426291854227_" gradientUnits="userSpaceOnUse" x1="231.3646" y1="73.0382" x2="231.9422" y2="8.142" gradientTransform="matrix(0.7071 0.7071 -0.7071 0.7071 288.9876 -233.1571)">
				<stop  offset="0" style="stop-color:#FCAE00"/>
				<stop  offset="1" style="stop-color:#EA4E00"/>
			</linearGradient>
			<polygon style="fill:url(#SVGID_00000050665276836094172940000002495966426291854227_);" points="469.45,-40.83 424.26,-86.01 
				379.08,-40.83 424.26,4.36 			"/>
			
				<linearGradient id="SVGID_00000006681439498317858980000007913506583227346069_" gradientUnits="userSpaceOnUse" x1="104.325" y1="514.4559" x2="104.6599" y2="476.8369" gradientTransform="matrix(0.7071 0.7071 -0.7071 0.7071 288.9876 -233.1571)">
				<stop  offset="0" style="stop-color:#003C51"/>
				<stop  offset="1" style="stop-color:#011526"/>
			</linearGradient>
			<polygon style="fill:url(#SVGID_00000006681439498317858980000007913506583227346069_);" points="38.7,191.1 12.5,164.91 
				-13.69,191.1 12.5,217.29 			"/>
			
				<linearGradient id="SVGID_00000103262605224021573990000004107133566838079897_" gradientUnits="userSpaceOnUse" x1="104.3251" y1="477.4125" x2="104.66" y2="439.7935" gradientTransform="matrix(0.7071 0.7071 -0.7071 0.7071 288.9876 -233.1571)">
				<stop  offset="0" style="stop-color:#195A59"/>
				<stop  offset="1" style="stop-color:#209794"/>
			</linearGradient>
			<polygon style="fill:url(#SVGID_00000103262605224021573990000004107133566838079897_);" points="64.89,164.91 38.7,138.71 
				12.5,164.91 38.7,191.1 			"/>
			
				<linearGradient id="SVGID_00000050652135275742269670000010252510515747304882_" gradientUnits="userSpaceOnUse" x1="67.2817" y1="477.4125" x2="67.6166" y2="439.7935" gradientTransform="matrix(0.7071 0.7071 -0.7071 0.7071 288.9876 -233.1571)">
				<stop  offset="1.298195e-07" style="stop-color:#E5A330"/>
				<stop  offset="1" style="stop-color:#DAB468"/>
			</linearGradient>
			<polygon style="fill:url(#SVGID_00000050652135275742269670000010252510515747304882_);" points="38.7,138.71 12.5,112.52 
				-13.69,138.71 12.5,164.91 			"/>
			
				<linearGradient id="SVGID_00000005987455422291658770000008231390430753277078_" gradientUnits="userSpaceOnUse" x1="835.7833" y1="240.79" x2="836.0391" y2="212.0522" gradientTransform="matrix(0.7071 -0.7071 1.4142 1.4142 -172.1901 752.5303)">
				<stop  offset="0" style="stop-color:#003C51"/>
				<stop  offset="1" style="stop-color:#011526"/>
			</linearGradient>
			<polygon style="fill:url(#SVGID_00000005987455422291658770000008231390430753277078_);" points="728.93,451.49 708.92,471.5 
				748.94,511.52 768.95,491.51 			"/>
			
				<linearGradient id="SVGID_00000136369568288500268270000012981003035543673003_" gradientUnits="userSpaceOnUse" x1="807.4852" y1="212.4919" x2="807.741" y2="183.7542" gradientTransform="matrix(0.7071 -0.7071 0.7071 0.7071 -2.16 922.5604)">
				<stop  offset="1.298195e-07" style="stop-color:#E5A330"/>
				<stop  offset="1" style="stop-color:#DAB468"/>
			</linearGradient>
			<polygon style="fill:url(#SVGID_00000136369568288500268270000012981003035543673003_);" points="708.92,471.5 688.91,491.51 
				708.92,511.52 728.93,491.51 			"/>
			
				<linearGradient id="SVGID_00000062182754218122630560000009986144864912433325_" gradientUnits="userSpaceOnUse" x1="387.6219" y1="-78.6958" x2="387.8777" y2="-107.4336" gradientTransform="matrix(-0.7071 0.7071 -0.7071 -0.7071 799.8993 -345.9585)">
				<stop  offset="0" style="stop-color:#003C51"/>
				<stop  offset="1" style="stop-color:#011526"/>
			</linearGradient>
			<polygon style="fill:url(#SVGID_00000062182754218122630560000009986144864912433325_);" points="591.6,14.11 611.61,-5.9 
				591.6,-25.91 571.59,-5.9 			"/>
			
				<linearGradient id="SVGID_00000003790112063008719710000006291093263160382381_" gradientUnits="userSpaceOnUse" x1="387.6219" y1="-106.9938" x2="387.8777" y2="-135.7316" gradientTransform="matrix(-0.7071 0.7071 -0.7071 -0.7071 799.8993 -345.9585)">
				<stop  offset="0" style="stop-color:#00444F"/>
				<stop  offset="1" style="stop-color:#00B2AD"/>
			</linearGradient>
			<polygon style="fill:url(#SVGID_00000003790112063008719710000006291093263160382381_);" points="611.61,34.12 631.62,14.11 
				611.61,-5.9 591.6,14.11 			"/>
			
				<linearGradient id="SVGID_00000132076929744205569650000000681779203778495921_" gradientUnits="userSpaceOnUse" x1="359.3239" y1="-106.9938" x2="359.5797" y2="-135.7316" gradientTransform="matrix(-0.7071 0.7071 -0.7071 -0.7071 799.8993 -345.9585)">
				<stop  offset="0" style="stop-color:#FCAE00"/>
				<stop  offset="1" style="stop-color:#EA4E00"/>
			</linearGradient>
			<polygon style="fill:url(#SVGID_00000132076929744205569650000000681779203778495921_);" points="631.62,14.11 651.63,-5.9 
				631.62,-25.91 611.61,-5.9 			"/>
			<g>
				
					<rect x="364.9" y="430.62" transform="matrix(0.7071 -0.7071 0.7071 0.7071 -199.3519 388.3295)" class="st48" width="8.37" height="8.37"/>
				
					<rect x="376.73" y="442.45" transform="matrix(0.7071 -0.7071 0.7071 0.7071 -204.2526 400.1642)" class="st48" width="8.37" height="8.37"/>
				
					<rect x="376.73" y="430.62" transform="matrix(0.7071 -0.7071 0.7071 0.7071 -195.8874 396.7001)" class="st48" width="8.37" height="8.37"/>
			</g>
			<g>
				
					<rect x="40.43" y="479.21" transform="matrix(0.7071 -0.7071 0.7071 0.7071 -328.7448 173.1291)" class="st48" width="8.37" height="8.37"/>
				
					<rect x="52.26" y="467.38" transform="matrix(0.7071 -0.7071 0.7071 0.7071 -316.9144 178.0294)" class="st48" width="8.37" height="8.37"/>
				
					<rect x="40.43" y="467.38" transform="matrix(0.7071 -0.7071 0.7071 0.7071 -320.3794 169.6641)" class="st48" width="8.37" height="8.37"/>
			</g>
			<g>
				
					<rect x="198.99" y="22.55" transform="matrix(0.7071 -0.7071 0.7071 0.7071 40.604 151.4928)" class="st48" width="8.37" height="8.37"/>
				
					<rect x="210.82" y="10.72" transform="matrix(0.7071 -0.7071 0.7071 0.7071 52.4341 156.393)" class="st48" width="8.37" height="8.37"/>
				
					<rect x="198.99" y="10.72" transform="matrix(0.7071 -0.7071 0.7071 0.7071 48.9703 148.0291)" class="st48" width="8.37" height="8.37"/>
			</g>
			<g>
				
					<rect x="11.69" y="246.32" transform="matrix(0.7071 -0.7071 0.7071 0.7071 -172.4814 84.5976)" class="st48" width="8.37" height="8.37"/>
				
					<rect x="23.53" y="258.15" transform="matrix(0.7071 -0.7071 0.7071 0.7071 -177.3803 96.4262)" class="st48" width="8.37" height="8.37"/>
				
					<rect x="23.53" y="246.32" transform="matrix(0.7071 -0.7071 0.7071 0.7071 -169.0177 92.9645)" class="st48" width="8.37" height="8.37"/>
			</g>
			<g>
				
					<rect x="386.04" y="128.62" transform="matrix(0.7071 -0.7071 0.7071 0.7071 20.3912 314.8273)" class="st48" width="8.37" height="8.37"/>
				
					<rect x="397.87" y="140.45" transform="matrix(0.7071 -0.7071 0.7071 0.7071 15.4892 326.654)" class="st48" width="8.37" height="8.37"/>
				
					<rect x="397.87" y="128.62" transform="matrix(0.7071 -0.7071 0.7071 0.7071 23.858 323.1961)" class="st48" width="8.37" height="8.37"/>
			</g>
			<g>
				<rect x="629.16" y="468.63" class="st48" width="8.37" height="8.37"/>
				<rect x="637.53" y="460.26" class="st48" width="8.37" height="8.37"/>
				<rect x="620.8" y="476.99" class="st48" width="8.37" height="8.37"/>
			</g>
			<g>
				<rect x="722.2" y="288.89" class="st48" width="8.37" height="8.37"/>
				<rect x="730.57" y="280.53" class="st48" width="8.37" height="8.37"/>
				<rect x="713.84" y="297.26" class="st48" width="8.37" height="8.37"/>
			</g>
			<g>
				<rect x="393.71" y="344.39" class="st48" width="8.37" height="8.37"/>
				<rect x="402.08" y="336.02" class="st48" width="8.37" height="8.37"/>
				<rect x="385.35" y="352.75" class="st48" width="8.37" height="8.37"/>
			</g>
			<g>
				<rect x="645.89" y="31.87" class="st48" width="8.37" height="8.37"/>
				<rect x="654.26" y="23.5" class="st48" width="8.37" height="8.37"/>
				<rect x="637.53" y="40.23" class="st48" width="8.37" height="8.37"/>
			</g>
			<g>
				<rect x="637.53" y="146.36" class="st48" width="8.37" height="8.37"/>
				<rect x="645.89" y="138" class="st48" width="8.37" height="8.37"/>
				<rect x="629.16" y="154.73" class="st48" width="8.37" height="8.37"/>
			</g>
			<g>
				<rect x="402.08" y="36.05" class="st48" width="8.37" height="8.37"/>
				<rect x="410.44" y="27.69" class="st48" width="8.37" height="8.37"/>
				<rect x="393.71" y="44.42" class="st48" width="8.37" height="8.37"/>
			</g>
			<g>
				<rect x="244.08" y="487.33" class="st48" width="8.37" height="8.37"/>
				<rect x="252.45" y="478.96" class="st48" width="8.37" height="8.37"/>
				<rect x="235.72" y="495.69" class="st48" width="8.37" height="8.37"/>
			</g>
			<g>
				<rect x="40.43" y="93.51" class="st48" width="8.37" height="8.37"/>
				<rect x="48.8" y="85.14" class="st48" width="8.37" height="8.37"/>
				<rect x="32.06" y="101.88" class="st48" width="8.37" height="8.37"/>
			</g>
			
				<linearGradient id="SVGID_00000067945193691474686590000017554160904489325191_" gradientUnits="userSpaceOnUse" x1="27.8157" y1="427.5301" x2="47.4949" y2="427.5301">
				<stop  offset="0" style="stop-color:#003C51"/>
				<stop  offset="1" style="stop-color:#011526"/>
			</linearGradient>
			<polygon style="fill:url(#SVGID_00000067945193691474686590000017554160904489325191_);" points="47.49,427.53 37.66,417.69 
				27.82,427.53 37.66,437.37 			"/>
			
				<linearGradient id="SVGID_00000087409813952386030970000013121636643810644386_" gradientUnits="userSpaceOnUse" x1="328.3109" y1="62.6215" x2="347.9902" y2="62.6215">
				<stop  offset="0" style="stop-color:#003C51"/>
				<stop  offset="1" style="stop-color:#011526"/>
			</linearGradient>
			<polygon style="fill:url(#SVGID_00000087409813952386030970000013121636643810644386_);" points="347.99,62.62 338.15,52.78 
				328.31,62.62 338.15,72.46 			"/>
			
				<linearGradient id="SVGID_00000011753812944170804500000012615124243478077842_" gradientUnits="userSpaceOnUse" x1="325.7557" y1="396.4471" x2="345.4349" y2="396.4471">
				<stop  offset="0" style="stop-color:#00444F"/>
				<stop  offset="1" style="stop-color:#00B2AD"/>
			</linearGradient>
			<polygon style="fill:url(#SVGID_00000011753812944170804500000012615124243478077842_);" points="345.43,396.45 335.6,386.61 
				325.76,396.45 335.6,406.29 			"/>
			
				<linearGradient id="SVGID_00000156570332766437785800000011681503352372886443_" gradientUnits="userSpaceOnUse" x1="20.7511" y1="62.6215" x2="40.4303" y2="62.6215">
				<stop  offset="0" style="stop-color:#00444F"/>
				<stop  offset="1" style="stop-color:#00B2AD"/>
			</linearGradient>
			<polygon style="fill:url(#SVGID_00000156570332766437785800000011681503352372886443_);" points="40.43,62.62 30.59,52.78 
				20.75,62.62 30.59,72.46 			"/>
			
				<linearGradient id="SVGID_00000124154093967139736530000010791517919832086932_" gradientUnits="userSpaceOnUse" x1="376.9907" y1="285.7236" x2="396.6699" y2="285.7236">
				<stop  offset="1.298195e-07" style="stop-color:#E5A330"/>
				<stop  offset="1" style="stop-color:#DAB468"/>
			</linearGradient>
			<polygon style="fill:url(#SVGID_00000124154093967139736530000010791517919832086932_);" points="396.67,285.72 386.83,275.88 
				376.99,285.72 386.83,295.56 			"/>
			
				<linearGradient id="SVGID_00000117649380757698781300000012960552636203238070_" gradientUnits="userSpaceOnUse" x1="155.7912" y1="4.3596" x2="175.4705" y2="4.3596">
				<stop  offset="0" style="stop-color:#FCAE00"/>
				<stop  offset="1" style="stop-color:#EA4E00"/>
			</linearGradient>
			<polygon style="fill:url(#SVGID_00000117649380757698781300000012960552636203238070_);" points="175.47,4.36 165.63,-5.48 
				155.79,4.36 165.63,14.2 			"/>
			
				<linearGradient id="SVGID_00000165207818898441902650000015975472472292695444_" gradientUnits="userSpaceOnUse" x1="155.5416" y1="26.7325" x2="164.4305" y2="26.7325">
				<stop  offset="0" style="stop-color:#00444F"/>
				<stop  offset="1" style="stop-color:#00B2AD"/>
			</linearGradient>
			<polygon style="fill:url(#SVGID_00000165207818898441902650000015975472472292695444_);" points="164.43,26.73 159.99,22.29 
				155.54,26.73 159.99,31.18 			"/>
			
				<linearGradient id="SVGID_00000106827693736887918950000000598815390372082605_" gradientUnits="userSpaceOnUse" x1="325.1696" y1="85.1443" x2="334.0585" y2="85.1443">
				<stop  offset="0" style="stop-color:#00444F"/>
				<stop  offset="1" style="stop-color:#00B2AD"/>
			</linearGradient>
			<polygon style="fill:url(#SVGID_00000106827693736887918950000000598815390372082605_);" points="334.06,85.14 329.61,80.7 
				325.17,85.14 329.61,89.59 			"/>
			
				<linearGradient id="SVGID_00000067236165631249350320000000275445891027802284_" gradientUnits="userSpaceOnUse" x1="370.5555" y1="93.5097" x2="379.4445" y2="93.5097">
				<stop  offset="0" style="stop-color:#FCAE00"/>
				<stop  offset="1" style="stop-color:#EA4E00"/>
			</linearGradient>
			<polygon style="fill:url(#SVGID_00000067236165631249350320000000275445891027802284_);" points="379.44,93.51 375,89.07 
				370.56,93.51 375,97.95 			"/>
			
				<linearGradient id="SVGID_00000032636299752924789150000009338792731604884648_" gradientUnits="userSpaceOnUse" x1="352.2222" y1="279.7436" x2="361.1111" y2="279.7436">
				<stop  offset="0" style="stop-color:#003C51"/>
				<stop  offset="1" style="stop-color:#011526"/>
			</linearGradient>
			<polygon style="fill:url(#SVGID_00000032636299752924789150000009338792731604884648_);" points="361.11,279.74 356.67,275.3 
				352.22,279.74 356.67,284.19 			"/>
			
				<rect x="399.2" y="260.66" transform="matrix(0.7071 0.7071 -0.7071 0.7071 304.3797 -207.231)" class="st48" width="6.29" height="6.29"/>
			
				<rect x="73.94" y="482.22" transform="matrix(0.7071 0.7071 -0.7071 0.7071 365.7799 87.6494)" class="st48" width="6.29" height="6.29"/>
			
				<rect x="37.29" y="215.88" transform="matrix(0.7071 0.7071 -0.7071 0.7071 166.7172 35.5629)" class="st48" width="6.29" height="6.29"/>
			
				<rect x="27.45" y="393.3" transform="matrix(0.7071 0.7071 -0.7071 0.7071 289.2902 94.4858)" class="st48" width="6.29" height="6.29"/>
			
				<linearGradient id="SVGID_00000182525970007935860220000002488730636710034323_" gradientUnits="userSpaceOnUse" x1="336.252" y1="433.0836" x2="345.141" y2="433.0836">
				<stop  offset="0" style="stop-color:#FCAE00"/>
				<stop  offset="1" style="stop-color:#EA4E00"/>
			</linearGradient>
			<polygon style="fill:url(#SVGID_00000182525970007935860220000002488730636710034323_);" points="345.14,433.08 340.7,428.64 
				336.25,433.08 340.7,437.53 			"/>
			
				<linearGradient id="SVGID_00000163786612604486070170000002179605416042858405_" gradientUnits="userSpaceOnUse" x1="109.0204" y1="489.3097" x2="117.9093" y2="489.3097">
				<stop  offset="0" style="stop-color:#00444F"/>
				<stop  offset="1" style="stop-color:#00B2AD"/>
			</linearGradient>
			<polygon style="fill:url(#SVGID_00000163786612604486070170000002179605416042858405_);" points="117.91,489.31 113.46,484.87 
				109.02,489.31 113.46,493.75 			"/>
			
				<linearGradient id="SVGID_00000002353250100110121520000005248149586784583090_" gradientUnits="userSpaceOnUse" x1="11.4332" y1="444.8182" x2="20.3221" y2="444.8182">
				<stop  offset="0" style="stop-color:#FCAE00"/>
				<stop  offset="1" style="stop-color:#EA4E00"/>
			</linearGradient>
			<polygon style="fill:url(#SVGID_00000002353250100110121520000005248149586784583090_);" points="20.32,444.82 15.88,440.37 
				11.43,444.82 15.88,449.26 			"/>
			
				<linearGradient id="SVGID_00000135666645734792054220000007615915366646942890_" gradientUnits="userSpaceOnUse" x1="48.5338" y1="236.2393" x2="57.4228" y2="236.2393">
				<stop  offset="0" style="stop-color:#FCAE00"/>
				<stop  offset="1" style="stop-color:#EA4E00"/>
			</linearGradient>
			<polygon style="fill:url(#SVGID_00000135666645734792054220000007615915366646942890_);" points="57.42,236.24 52.98,231.79 
				48.53,236.24 52.98,240.68 			"/>
			
				<linearGradient id="SVGID_00000045616498806748966020000003999453038227746969_" gradientUnits="userSpaceOnUse" x1="47.5052" y1="124.4773" x2="56.3941" y2="124.4773">
				<stop  offset="0" style="stop-color:#FCAE00"/>
				<stop  offset="1" style="stop-color:#EA4E00"/>
			</linearGradient>
			<polygon style="fill:url(#SVGID_00000045616498806748966020000003999453038227746969_);" points="56.39,124.48 51.95,120.03 
				47.51,124.48 51.95,128.92 			"/>
			
				<linearGradient id="SVGID_00000063630086422798072170000009554413741988720811_" gradientUnits="userSpaceOnUse" x1="68.1988" y1="62.6215" x2="77.0877" y2="62.6215">
				<stop  offset="0" style="stop-color:#003C51"/>
				<stop  offset="1" style="stop-color:#011526"/>
			</linearGradient>
			<polygon style="fill:url(#SVGID_00000063630086422798072170000009554413741988720811_);" points="77.09,62.62 72.64,58.18 
				68.2,62.62 72.64,67.07 			"/>
			
				<linearGradient id="SVGID_00000038376589676112177080000003416250919486491300_" gradientUnits="userSpaceOnUse" x1="604.8916" y1="359.3032" x2="604.8916" y2="412.662">
				<stop  offset="0" style="stop-color:#FFFFFF"/>
				<stop  offset="1" style="stop-color:#000000"/>
			</linearGradient>
			<polygon style="opacity:0.2;fill:url(#SVGID_00000038376589676112177080000003416250919486491300_);" points="459.08,412.69 
				750.7,412.69 604.89,266.88 			"/>
		</g>
	</g>
</g>
</svg>
